<?xml version="1.0" encoding="UTF-8" standalone="no"?>
<svg
   xmlns:dc="http://purl.org/dc/elements/1.1/"
   xmlns:cc="http://creativecommons.org/ns#"
   xmlns:rdf="http://www.w3.org/1999/02/22-rdf-syntax-ns#"
   xmlns:svg="http://www.w3.org/2000/svg"
   xmlns="http://www.w3.org/2000/svg"
   version="1.1"
   id="svg2"
   viewBox="0 0 707.99998 353.99999"
   height="354"
   width="708">
  <defs
     id="defs4" />
  <metadata
     id="metadata7">
    <rdf:RDF>
      <cc:Work
         rdf:about="">
        <dc:format>image/svg+xml</dc:format>
        <dc:type
           rdf:resource="http://purl.org/dc/dcmitype/StillImage" />
        <dc:title></dc:title>
      </cc:Work>
    </rdf:RDF>
  </metadata>
  <g
     transform="translate(0,-698.36223)"
     id="layer1">
    <g
       id="text3336"
       style="font-style:normal;font-variant:normal;font-weight:300;font-stretch:normal;font-size:294.59634399px;line-height:125%;font-family:Noteworthy;-inkscape-font-specification:'Noteworthy Light';letter-spacing:0px;word-spacing:0px;fill:#000000;fill-opacity:1;stroke:none;stroke-width:1px;stroke-linecap:butt;stroke-linejoin:miter;stroke-opacity:1">
      <path
         id="path3341"
         style=""
         d="m 248.93314,923.62519 -2.57772,2.20947 q -13.62508,-2.57772 -45.66243,-2.57772 -9.20614,0 -11.78385,4.0507 -2.57772,3.68245 -2.57772,13.99333 0,31.30086 3.68245,42.34822 0.36825,1.10474 2.94597,5.15544 2.57771,4.0507 2.57771,5.52368 0,1.84123 -2.57771,6.26019 l -11.78386,0 q -2.94596,0 -8.1014,-6.26019 -5.15543,-6.26017 -5.15543,-9.57438 0,-1.47298 0.73649,-4.41895 1.10473,-3.31421 1.10473,-4.78719 0,-5.89193 0.36825,-18.04402 0.36824,-12.1521 0.36824,-18.04403 0,-13.25684 -4.0507,-13.25684 -16.57104,0 -49.34488,4.78719 -32.405601,4.41895 -48.976645,4.41895 -9.574381,0 -23.567708,-8.1014 -15.098062,-9.20614 -15.098062,-18.04403 0,-11.4156 22.462971,-32.77384 16.202799,-13.99333 32.405598,-28.3549 26.881916,-23.56771 78.804526,-72.91259 7.3649,-9.57438 14.72981,-18.78052 9.57438,-11.41561 19.51701,-11.41561 5.52368,0 9.94263,4.0507 4.78719,4.0507 4.78719,9.57438 0,2.94597 -2.94597,12.1521 -3.68245,12.1521 -4.0507,13.25684 -1.84122,8.1014 -10.31087,64.44295 -6.26017,41.61173 -6.26017,52.65909 0,4.0507 3.31421,6.62842 3.31421,-0.36824 10.67912,-0.36824 7.36491,-0.36825 11.04736,-0.36825 28.3549,0 35.35156,10.31087 l 0,6.26018 z m -69.59839,-129.6224 -4.0507,0 q -24.30419,15.09807 -68.1254,53.39559 -52.290851,45.29419 -52.290851,58.91927 0,11.04736 13.625081,10.67912 l 1.472982,0 99.794508,-8.46965 9.57438,-114.52433 z" />
      <path
         id="path3343"
         style=""
         d="m 449.83404,861.02346 q 0,49.34489 -23.93596,88.74715 -27.6184,46.39893 -73.64908,46.39893 -43.82121,0 -69.23014,-34.98332 -22.83122,-31.30086 -22.83122,-76.59505 0,-38.66577 19.88525,-78.43628 22.46297,-44.18945 55.60506,-55.9733 13.62508,-5.15544 32.77385,-5.15544 5.89192,0 24.67244,7.73316 28.72314,11.4156 43.82121,45.29418 12.88859,28.3549 12.88859,62.96997 z m -18.04403,-1.47298 q 0,-40.13875 -14.36157,-66.65242 -18.41227,-33.14209 -55.23682,-33.14209 -12.88859,0 -26.51367,8.83789 -27.6184,17.67578 -42.71647,51.18611 -13.62508,30.93262 -13.62508,65.91594 0,19.14876 2.57772,30.56437 5.52368,25.77718 26.14543,42.71647 20.98999,16.93929 47.50366,16.93929 39.03401,0 59.65576,-40.87525 16.57104,-32.40559 16.57104,-75.49031 z" />
      <path
         id="path3345"
         style=""
         d="m 683.92307,923.62519 -2.57772,2.20947 q -13.62508,-2.57772 -45.66243,-2.57772 -9.20614,0 -11.78386,4.0507 -2.57771,3.68245 -2.57771,13.99333 0,31.30086 3.68245,42.34822 0.36825,1.10474 2.94596,5.15544 2.57772,4.0507 2.57772,5.52368 0,1.84123 -2.57772,6.26019 l -11.78385,0 q -2.94596,0 -8.1014,-6.26019 -5.15543,-6.26017 -5.15543,-9.57438 0,-1.47298 0.73649,-4.41895 1.10473,-3.31421 1.10473,-4.78719 0,-5.89193 0.36825,-18.04402 0.36824,-12.1521 0.36824,-18.04403 0,-13.25684 -4.0507,-13.25684 -16.57104,0 -49.34488,4.78719 -32.4056,4.41895 -48.97665,4.41895 -9.57438,0 -23.5677,-8.1014 -15.09807,-9.20614 -15.09807,-18.04403 0,-11.4156 22.46298,-32.77384 16.20279,-13.99333 32.40559,-28.3549 26.88192,-23.56771 78.80452,-72.91259 7.36491,-9.57438 14.72982,-18.78052 9.57438,-11.41561 19.51701,-11.41561 5.52368,0 9.94263,4.0507 4.78719,4.0507 4.78719,9.57438 0,2.94597 -2.94597,12.1521 -3.68245,12.1521 -4.0507,13.25684 -1.84122,8.1014 -10.31087,64.44295 -6.26017,41.61173 -6.26017,52.65909 0,4.0507 3.31421,6.62842 3.31421,-0.36824 10.67912,-0.36824 7.3649,-0.36825 11.04736,-0.36825 28.3549,0 35.35156,10.31087 l 0,6.26018 z m -69.59839,-129.6224 -4.0507,0 q -24.30419,15.09807 -68.1254,53.39559 -52.29085,45.29419 -52.29085,58.91927 0,11.04736 13.62508,10.67912 l 1.47298,0 99.79451,-8.46965 9.57438,-114.52433 z" />
    </g>
  </g>
</svg>
